<?xml version="1.0" encoding="utf-8"?>
<!-- Generator: Adobe Illustrator 22.1.0, SVG Export Plug-In . SVG Version: 6.00 Build 0)  -->
<svg version="1.1" id="Layer_1" xmlns="http://www.w3.org/2000/svg" xmlns:xlink="http://www.w3.org/1999/xlink" x="0px" y="0px"
	 width="3456px" height="2592px" viewBox="0 0 3456 2592" style="enable-background:new 0 0 3456 2592;" xml:space="preserve">
<style type="text/css">
	.st0{fill:none;stroke:#000000;stroke-width:0.75;stroke-miterlimit:10;}
	.st1{fill:none;stroke:#000000;stroke-miterlimit:10;}
</style>
<g>
	<path class="st0" d="M2149.1,2140l-367.3-418.4V871.1L2149.2,452h-842.3L1470,871.1v91.2h17.1c17.8,0,32.3,14.5,32.3,32.3v77.1
		c0,17.8-14.5,32.3-32.3,32.3H1470v436.8h3.5c17.8,0,32.3,14.5,32.3,32.3v105.4c0,17.8-14.5,32.3-32.3,32.3h-3.5v10.7L1306.9,2140
		H2149.1z"/>
	<g>
		<circle class="st1" cx="1732.4" cy="1189.6" r="28.3"/>
		<circle class="st1" cx="1732.1" cy="1402.2" r="28.3"/>
		<circle class="st1" cx="1519.4" cy="1189.6" r="28.3"/>
		<circle class="st1" cx="1519.1" cy="1402.2" r="28.3"/>
	</g>
</g>
</svg>
