<?xml version="1.0" encoding="utf-8"?>
<!-- Generator: Adobe Illustrator 22.1.0, SVG Export Plug-In . SVG Version: 6.00 Build 0)  -->
<svg version="1.1" id="Layer_1" xmlns="http://www.w3.org/2000/svg" xmlns:xlink="http://www.w3.org/1999/xlink" x="0px" y="0px"
	 width="3456px" height="2592px" viewBox="0 0 3456 2592" style="enable-background:new 0 0 3456 2592;" xml:space="preserve">
<style type="text/css">
	.st0{fill:none;stroke:#000000;stroke-width:0.75;stroke-miterlimit:10;}
</style>
<g>
	<path class="st0" d="M786.723,844.255l-52.331-288.728c-2.53-13.389-14.228-23.083-27.853-23.083H375.7v453.543v1176.378h1746.359
		c11.016,0,21.035-6.383,25.69-16.367l289.218-620.229c6.616-14.189,0.478-31.054-13.711-37.67l-370.24-172.646
		c-14.189-6.616-31.054-0.478-37.67,13.711l-6.725,11.154C1767.676,1694.649,871.763,1297.799,786.723,844.255z"/>
	<path class="st0" d="M2663.674,1749.509l52.331,288.728c2.53,13.389,14.228,23.083,27.854,23.083h330.839v-453.543V431.399
		H1328.339c-11.016,0-21.035,6.383-25.691,16.367l-289.217,620.229c-6.616,14.189-0.478,31.054,13.711,37.67l370.24,172.646
		c14.189,6.616,31.054,0.478,37.67-13.711l6.725-11.154C1682.721,899.115,2578.634,1295.966,2663.674,1749.509z"/>
</g>
</svg>
