<?xml version="1.0" encoding="utf-8"?>
<!-- Generator: Adobe Illustrator 22.1.0, SVG Export Plug-In . SVG Version: 6.00 Build 0)  -->
<svg version="1.1" id="Layer_1" xmlns="http://www.w3.org/2000/svg" xmlns:xlink="http://www.w3.org/1999/xlink" x="0px" y="0px"
	 width="3456px" height="2592px" viewBox="0 0 3456 2592" style="enable-background:new 0 0 3456 2592;" xml:space="preserve">
<style type="text/css">
	.st0{fill:none;stroke:#000000;stroke-width:0.75;stroke-miterlimit:10;}
</style>
<g>
	<rect x="1657.1" y="445.6" class="st0" width="708.7" height="1700.8"/>
	<g>
		<rect x="1090.2" y="445.6" class="st0" width="510.2" height="1700.8"/>
		<g>
			<path class="st0" d="M1417.2,543.8L1417.2,543.8c5.5,5.5,5.5,14.5,0,20l-180.4,180.4c-5.5,5.5-14.5,5.5-20,0l0,0
				c-5.5-5.5-5.5-14.5,0-20l180.4-180.4C1402.7,538.3,1411.7,538.3,1417.2,543.8z"/>
			<path class="st0" d="M1367.1,513.8L1367.1,513.8c5.5,5.5,5.5,14.5,0,20l-160.4,160.4c-5.5,5.5-14.5,5.5-20,0l0,0
				c-5.5-5.5-5.5-14.5,0-20l160.4-160.4C1352.5,508.2,1361.6,508.2,1367.1,513.8z"/>
			<path class="st0" d="M1286.9,513.8L1286.9,513.8c5.5,5.5,5.5,14.5,0,20l-80.2,80.2c-5.5,5.5-14.5,5.5-20,0l0,0
				c-5.5-5.5-5.5-14.5,0-20l80.2-80.2C1272.4,508.2,1281.4,508.2,1286.9,513.8z"/>
			<path class="st0" d="M1447.3,593.9L1447.3,593.9c-5.5-5.5-14.5-5.5-20,0l-160.4,160.4c-5.5,5.5-5.5,14.5,0,20l0,0
				c5.5,5.5,14.5,5.5,20,0l160.4-160.4C1452.8,608.5,1452.8,599.4,1447.3,593.9z"/>
			<path class="st0" d="M1447.3,674.1L1447.3,674.1c-5.5-5.5-14.5-5.5-20,0l-80.2,80.2c-5.5,5.5-5.5,14.5,0,20l0,0
				c5.5,5.5,14.5,5.5,20,0l80.2-80.2C1452.8,688.6,1452.8,679.6,1447.3,674.1z"/>
		</g>
		<g>
			<path class="st0" d="M1417.2,2048.2L1417.2,2048.2c-5.5,5.5-14.5,5.5-20,0l-180.4-180.4c-5.5-5.5-5.5-14.5,0-20l0,0
				c5.5-5.5,14.5-5.5,20,0l180.4,180.4C1422.7,2033.7,1422.7,2042.7,1417.2,2048.2z"/>
			<path class="st0" d="M1447.3,1998.1L1447.3,1998.1c-5.5,5.5-14.5,5.5-20,0l-160.4-160.4c-5.5-5.5-5.5-14.5,0-20l0,0
				c5.5-5.5,14.5-5.5,20,0l160.4,160.4C1452.8,1983.6,1452.8,1992.6,1447.3,1998.1z"/>
			<path class="st0" d="M1447.3,1917.9L1447.3,1917.9c-5.5,5.5-14.5,5.5-20,0l-80.2-80.2c-5.5-5.5-5.5-14.5,0-20l0,0
				c5.5-5.5,14.5-5.5,20,0l80.2,80.2C1452.8,1903.4,1452.8,1912.4,1447.3,1917.9z"/>
			<path class="st0" d="M1367.1,2078.3L1367.1,2078.3c5.5-5.5,5.5-14.5,0-20l-160.4-160.4c-5.5-5.5-14.5-5.5-20,0l0,0
				c-5.5,5.5-5.5,14.5,0,20l160.4,160.4C1352.5,2083.8,1361.6,2083.8,1367.1,2078.3z"/>
			<path class="st0" d="M1286.9,2078.3L1286.9,2078.3c5.5-5.5,5.5-14.5,0-20l-80.2-80.2c-5.5-5.5-14.5-5.5-20,0l0,0
				c-5.5,5.5-5.5,14.5,0,20l80.2,80.2C1272.4,2083.8,1281.4,2083.8,1286.9,2078.3z"/>
		</g>
	</g>
</g>
</svg>
