<?xml version="1.0" encoding="utf-8"?>
<!-- Generator: Adobe Illustrator 22.1.0, SVG Export Plug-In . SVG Version: 6.00 Build 0)  -->
<svg version="1.1" id="Layer_1" xmlns="http://www.w3.org/2000/svg" xmlns:xlink="http://www.w3.org/1999/xlink" x="0px" y="0px"
	 width="3456px" height="2592px" viewBox="0 0 3456 2592" style="enable-background:new 0 0 3456 2592;" xml:space="preserve">
<style type="text/css">
	.st0{fill:none;stroke:#000000;stroke-width:0.75;stroke-miterlimit:10;}
</style>
<g>
	<g>
		<circle class="st0" cx="763.5" cy="1666" r="42.5"/>
		<circle class="st0" cx="763.5" cy="1778" r="42.5"/>
	</g>
	<g>
		<circle class="st0" cx="1302" cy="1053.4" r="28.3"/>
		<circle class="st0" cx="1349.3" cy="842.3" r="42.5"/>
		<circle class="st0" cx="1248.1" cy="842.3" r="42.5"/>
		<circle class="st0" cx="1395.8" cy="750.1" r="42.5"/>
		<circle class="st0" cx="1294.6" cy="750.1" r="42.5"/>
		<circle class="st0" cx="1392.3" cy="647.3" r="42.5"/>
		<circle class="st0" cx="1291.1" cy="647.3" r="42.5"/>
		<path class="st0" d="M1443.8,991.1v124.7c0,12.5-10.2,22.7-22.7,22.7H1183c-12.5,0-22.7-10.2-22.7-22.7V991.1
			c0-12.5,10.2-22.7,22.7-22.7h238.1C1433.6,968.4,1443.8,978.6,1443.8,991.1z"/>
	</g>
	<rect x="947.8" y="446.4" class="st0" width="708.7" height="1700.8"/>
	<g>
		<circle class="st0" cx="1302" cy="1903.7" r="28.3"/>
		<circle class="st0" cx="1349.3" cy="1692.7" r="42.5"/>
		<circle class="st0" cx="1248.1" cy="1692.7" r="42.5"/>
		<circle class="st0" cx="1395.8" cy="1600.5" r="42.5"/>
		<circle class="st0" cx="1294.6" cy="1600.5" r="42.5"/>
		<circle class="st0" cx="1392.3" cy="1497.7" r="42.5"/>
		<circle class="st0" cx="1291.1" cy="1497.7" r="42.5"/>
		<path class="st0" d="M1443.8,1841.4v124.7c0,12.5-10.2,22.7-22.7,22.7H1183c-12.5,0-22.7-10.2-22.7-22.7v-124.7
			c0-12.5,10.2-22.7,22.7-22.7h238.1C1433.6,1818.7,1443.8,1828.9,1443.8,1841.4z"/>
	</g>
	<rect x="607.6" y="446.4" class="st0" width="283.5" height="1700.8"/>
	<g>
		<circle class="st0" cx="763.5" cy="815.6" r="42.5"/>
		<circle class="st0" cx="763.5" cy="927.6" r="42.5"/>
	</g>
	<rect x="1713.1" y="446.4" class="st0" width="1133.9" height="1700.8"/>
	<path class="st0" d="M1911.5,1934.6V659c0-7.8,6.4-14.2,14.2-14.2h708.7c7.8,0,14.2,6.4,14.2,14.2v1275.6c0,7.8-6.4,14.2-14.2,14.2
		h-708.7C1917.9,1948.8,1911.5,1942.4,1911.5,1934.6z"/>
</g>
</svg>
